<?xml version="1.0" standalone="no"?>
<!DOCTYPE svg PUBLIC "-//W3C//DTD SVG 20010904//EN"
 "http://www.w3.org/TR/2001/REC-SVG-20010904/DTD/svg10.dtd">
<svg version="1.0" xmlns="http://www.w3.org/2000/svg"
 width="842.000000pt" height="842.000000pt" viewBox="0 0 842.000000 842.000000"
 preserveAspectRatio="xMidYMid meet">

<g transform="translate(0.000000,842.000000) scale(0.100000,-0.100000)"
fill="#6366f1" stroke="none">
<path d="M2654 7656 c-69 -31 -64 103 -64 -1577 0 -961 4 -1555 10 -1620 35
-349 157 -646 375 -909 163 -196 470 -407 714 -490 l71 -25 0 -556 0 -556 -92
-94 c-132 -135 -189 -239 -224 -409 -37 -183 10 -400 120 -554 117 -163 288
-268 495 -302 477 -79 890 230 918 686 14 228 -65 420 -244 597 l-83 82 2 551
3 552 85 33 c473 182 837 539 989 968 37 105 55 173 77 292 15 82 16 234 14
1675 -1 1376 -4 1588 -17 1613 -28 55 -46 57 -468 57 -415 0 -439 -3 -466 -52
-10 -18 -13 -338 -13 -1573 -1 -1470 -2 -1553 -19 -1610 -56 -184 -179 -334
-337 -413 -139 -70 -250 -85 -401 -56 -241 45 -426 208 -505 444 -18 52 -19
129 -24 1622 l-5 1568 -33 32 -32 33 -408 2 c-327 2 -413 0 -438 -11z"/>
<path d="M1022 7564 c-58 -29 -119 -104 -279 -345 -395 -591 -605 -1142 -689
-1809 -25 -199 -31 -727 -10 -920 50 -464 148 -815 343 -1230 122 -259 325
-583 510 -815 71 -89 99 -115 143 -138 47 -25 63 -28 113 -24 77 7 141 46 182
112 25 40 30 59 29 109 0 75 -16 108 -119 241 -376 487 -635 1081 -719 1650
-51 339 -47 758 10 1105 66 403 218 826 427 1185 44 76 228 354 331 502 92
130 98 206 23 305 -69 93 -193 123 -295 72z"/>
<path d="M7194 7566 c-109 -51 -163 -184 -118 -291 8 -21 57 -97 109 -169 384
-541 607 -1047 709 -1606 40 -220 50 -342 50 -590 0 -419 -58 -750 -205 -1167
-117 -332 -340 -729 -575 -1024 -37 -46 -75 -102 -85 -124 -75 -162 90 -350
267 -306 66 17 87 34 168 135 286 358 499 735 658 1166 96 261 168 562 205
853 24 190 24 689 0 887 -62 506 -171 886 -384 1330 -150 313 -457 794 -564
884 -60 51 -155 59 -235 22z"/>
<path d="M1795 6891 c-77 -19 -107 -47 -215 -196 -401 -556 -606 -1272 -562
-1958 28 -424 134 -807 329 -1190 86 -168 239 -401 327 -495 95 -103 248 -107
345 -8 58 59 77 121 56 191 -8 27 -29 71 -47 96 -18 26 -66 93 -106 150 -379
536 -513 1144 -406 1844 61 404 200 732 479 1138 101 147 113 202 65 297 -47
93 -171 153 -265 131z"/>
<path d="M6508 6880 c-50 -15 -96 -50 -127 -96 -61 -93 -50 -181 41 -311 283
-402 447 -806 509 -1253 21 -148 18 -566 -5 -715 -64 -422 -208 -759 -471
-1105 -91 -121 -108 -154 -109 -211 0 -176 220 -281 362 -173 101 78 329 425
443 679 239 526 319 1138 223 1705 -56 332 -177 676 -341 975 -76 139 -256
405 -305 452 -59 56 -142 77 -220 53z"/>
</g>
</svg>
